<?xml version="1.0" standalone="no"?>
<!DOCTYPE svg PUBLIC "-//W3C//DTD SVG 20010904//EN"
 "http://www.w3.org/TR/2001/REC-SVG-20010904/DTD/svg10.dtd">
<svg version="1.0" xmlns="http://www.w3.org/2000/svg"
 width="500.000000pt" height="500.000000pt" viewBox="0 0 500.000000 500.000000"
 preserveAspectRatio="xMidYMid meet">
<metadata>
Created by potrace 1.11, written by Peter Selinger 2001-2013
</metadata>
<g transform="translate(0.000000,500.000000) scale(0.100000,-0.100000)"
fill="#000000" stroke="none">
<path d="M1443 4624 c-380 -45 -692 -217 -885 -489 -102 -144 -174 -326 -194
-490 -3 -22 -7 -50 -10 -63 -3 -13 -5 -81 -5 -151 0 -258 68 -477 210 -679
120 -169 270 -286 476 -369 170 -70 247 -87 613 -138 17 -3 49 -7 69 -10 236
-30 272 -35 324 -45 124 -24 247 -85 314 -156 143 -152 159 -441 33 -612 -124
-168 -364 -256 -693 -255 -153 0 -253 12 -404 49 -231 57 -461 168 -682 329
-20 14 -42 23 -51 20 -9 -4 -69 -67 -134 -142 -66 -74 -128 -145 -139 -157
-87 -96 -141 -161 -150 -179 -11 -23 12 -45 155 -153 289 -216 680 -374 1040
-419 25 -3 61 -8 80 -11 66 -9 445 -12 515 -4 39 5 90 12 115 15 41 5 60 8
115 19 174 35 363 111 500 200 78 51 78 51 97 33 56 -56 263 -169 378 -206
153 -51 259 -66 445 -65 157 0 228 9 350 45 285 83 562 269 718 481 86 118
168 298 191 420 2 13 7 34 10 48 3 14 9 41 13 60 4 19 8 698 10 1509 3 1192 1
1476 -9 1483 -15 9 -601 11 -634 2 l-21 -6 -1 -1386 c-1 -763 -3 -1405 -6
-1427 -5 -38 -11 -76 -20 -120 -7 -37 -44 -124 -70 -169 -81 -139 -340 -273
-536 -278 -55 -2 -132 5 -190 17 -48 9 -137 52 -187 89 -73 54 -85 68 -79 97
2 13 9 47 15 74 35 171 29 389 -15 558 -34 131 -108 288 -188 396 -60 83 -66
90 -134 158 -189 188 -452 300 -800 338 -26 3 -83 10 -127 16 -44 6 -91 12
-105 14 -14 1 -38 5 -55 8 -16 4 -50 9 -75 12 -25 3 -52 8 -60 10 -8 2 -35 7
-58 10 -133 19 -271 84 -352 166 -112 112 -153 251 -126 424 34 217 244 384
516 412 108 11 286 5 375 -13 11 -2 34 -7 50 -9 172 -30 421 -129 630 -249 34
-19 65 -32 71 -28 6 4 71 97 146 207 75 110 154 227 177 260 25 36 40 67 36
76 -8 21 -220 144 -365 213 -96 45 -250 102 -395 146 -45 13 -213 48 -270 56
-27 3 -59 8 -70 11 -48 11 -388 9 -492 -3z"/>
</g>
</svg>
